<?xml version="1.0" encoding="UTF-8" standalone="no"?>
<svg
   xmlns:dc="http://purl.org/dc/elements/1.1/"
   xmlns:cc="http://creativecommons.org/ns#"
   xmlns:rdf="http://www.w3.org/1999/02/22-rdf-syntax-ns#"
   xmlns:svg="http://www.w3.org/2000/svg"
   xmlns="http://www.w3.org/2000/svg"
   xmlns:xlink="http://www.w3.org/1999/xlink"
   xmlns:sodipodi="http://sodipodi.sourceforge.net/DTD/sodipodi-0.dtd"
   xmlns:inkscape="http://www.inkscape.org/namespaces/inkscape"
   width="297mm"
   height="210mm"
   viewBox="0 0 297 210"
   version="1.1"
   id="svg8"
   inkscape:version="1.0.2 (e86c8708, 2021-01-15)"
   sodipodi:docname="BlackCircles.svg">
  <defs
     id="defs2">
    <linearGradient
       inkscape:collect="always"
       id="linearGradient1203">
      <stop
         style="stop-color:#cccccc;stop-opacity:1;"
         offset="0"
         id="stop1199" />
      <stop
         style="stop-color:#cccccc;stop-opacity:0;"
         offset="1"
         id="stop1201" />
    </linearGradient>
    <linearGradient
       inkscape:collect="always"
       xlink:href="#linearGradient1203"
       id="linearGradient1205"
       x1="292.72137"
       y1="262.83926"
       x2="70.172562"
       y2="89.057899"
       gradientUnits="userSpaceOnUse" />
  </defs>
  <sodipodi:namedview
     id="base"
     pagecolor="#ffffff"
     bordercolor="#666666"
     borderopacity="1.0"
     inkscape:pageopacity="0.0"
     inkscape:pageshadow="2"
     inkscape:zoom="0.57848045"
     inkscape:cx="395.73802"
     inkscape:cy="350.70051"
     inkscape:document-units="mm"
     inkscape:current-layer="layer1"
     inkscape:document-rotation="0"
     showgrid="false"
     inkscape:window-width="1252"
     inkscape:window-height="755"
     inkscape:window-x="0"
     inkscape:window-y="23"
     inkscape:window-maximized="0" />
  <metadata
     id="metadata5">
    <rdf:RDF>
      <cc:Work
         rdf:about="">
        <dc:format>image/svg+xml</dc:format>
        <dc:type
           rdf:resource="http://purl.org/dc/dcmitype/StillImage" />
        <dc:title />
      </cc:Work>
    </rdf:RDF>
  </metadata>
  <g
     inkscape:label="Layer 1"
     inkscape:groupmode="layer"
     id="layer1">
    <rect
       style="opacity:0.906752;mix-blend-mode:normal;fill:#000000;fill-rule:evenodd;stroke-width:0.264583"
       id="rect22-1-9"
       width="297.08929"
       height="210.15475"
       x="-0.30238241"
       y="7.1525574e-07" />
    <path
       sodipodi:type="spiral"
       style="fill:#4d4d4d;fill-opacity:1;fill-rule:evenodd;stroke:#666666;stroke-width:0.264583"
       id="path24"
       sodipodi:cx="294.06546"
       sodipodi:cy="113.39286"
       sodipodi:expansion="1"
       sodipodi:revolution="3"
       sodipodi:radius="159.31244"
       sodipodi:argument="-18.294479"
       sodipodi:t0="0"
       d="m 294.06546,113.39286 c 6.7884,4.20957 -2.32526,11.22749 -6.99658,11.28277 -12.659,0.14983 -18.20721,-14.80881 -15.56897,-25.275934 4.7192,-18.723221 26.68297,-25.937131 43.5553,-19.855157 24.76082,8.925542 33.84726,38.700531 24.14135,61.834651 -12.93647,30.83414 -50.76669,41.83125 -80.11401,28.42754 -36.93061,-16.86721 -49.85285,-62.85544 -32.71373,-98.393363 20.75776,-43.041191 74.9568,-57.896106 116.67272,-36.999923 49.16076,24.625428 65.95294,87.066006 41.28611,134.952076 -28.47884,55.28636 -99.18046,74.01885 -153.23143,45.5723 -61.41615,-32.32277 -82.09111,-111.29858 -49.8585,-171.510782 36.16012,-67.548986 123.41941,-90.167967 189.79015,-54.144689 73.68409,39.992666 98.24828,135.542261 58.43088,208.069501" />
    <path
       sodipodi:type="spiral"
       style="fill:#333333;fill-opacity:1;fill-rule:evenodd;stroke:#666666;stroke-width:0.265;stroke-miterlimit:4;stroke-dasharray:none"
       id="path34"
       sodipodi:cx="265.11438"
       sodipodi:cy="55.584171"
       sodipodi:expansion="1"
       sodipodi:revolution="3.00172"
       sodipodi:radius="155.42499"
       sodipodi:argument="-18.212971"
       sodipodi:t0="0"
       d="m 265.11438,55.584171 c 6.26281,4.629776 -3.151,10.726306 -7.69499,10.409195 -12.31395,-0.859348 -16.51819,-15.836646 -13.1234,-25.799179 6.07249,-17.820633 27.98962,-23.087508 43.90337,-15.837601 23.35406,10.63953 29.82057,40.296274 18.5518,62.007553 C 291.73167,115.30186 254.09515,122.98568 226.63942,107.63015 192.08919,88.306774 183.18215,42.589454 202.65921,9.4142194 226.24853,-30.765435 280.09856,-40.898824 318.97932,-17.280195 c 45.81964,27.833736 57.1814,89.846713 29.40862,134.424305 -32.06477,51.46659 -102.25988,64.05814 -152.52849,32.12282 -57.11838,-36.28695 -70.94077,-114.677141 -34.83702,-170.632679 40.50294,-62.773656 127.09737,-77.827654 188.73686,-37.551227 68.43152,44.714469 84.71774,139.519858 40.26543,206.841056 -0.30885,0.46773 -0.62023,0.9338 -0.93413,1.39817" />
    <path
       sodipodi:type="spiral"
       style="fill:#333333;fill-opacity:1;fill-rule:evenodd;stroke:#666666;stroke-width:0.264583"
       id="path58"
       sodipodi:cx="256.04294"
       sodipodi:cy="188.90005"
       sodipodi:expansion="1"
       sodipodi:revolution="3.00172"
       sodipodi:radius="182.06372"
       sodipodi:argument="-18.198591"
       sodipodi:t0="0"
       d="m 256.04294,188.90005 c 7.25746,5.52822 -3.87134,12.51035 -9.18826,12.06239 -14.40849,-1.21394 -19.08054,-18.82724 -14.93651,-30.43889 7.41269,-20.77052 33.17232,-26.57031 51.68953,-17.81065 27.17474,12.85514 34.24926,47.70017 20.68478,72.94017 -18.07932,33.64095 -62.29133,42.00687 -94.19081,23.55892 -40.14224,-23.21487 -49.80476,-76.9123 -26.43305,-115.44146 28.30627,-46.663966 91.54997,-57.625896 136.69209,-29.30718 53.19843,33.37263 65.46163,106.19805 32.18132,157.94273 -38.42344,59.74129 -120.85308,73.30709 -179.19337,35.05545 C 107.0587,253.99758 92.189298,161.94855 135.41908,97.017518 183.91636,24.174717 285.59553,8.0009442 357.11373,56.213809 c 79.39875,53.525421 96.87749,164.842611 43.67784,242.945291 -0.36962,0.54265 -0.74219,1.08329 -1.11767,1.6219" />
    <path
       sodipodi:type="spiral"
       style="fill:#4d4d4d;fill-rule:evenodd;stroke:#666666;stroke-width:0.264583;fill-opacity:1"
       id="path70"
       sodipodi:cx="224.51784"
       sodipodi:cy="104.32143"
       sodipodi:expansion="1"
       sodipodi:revolution="3.00172"
       sodipodi:radius="88.420578"
       sodipodi:argument="-18.731766"
       sodipodi:t0="0"
       d="m 224.51784,104.32143 c 4.40002,0.52069 1.46893,6.18803 -0.86542,7.31313 -6.32597,3.04894 -12.6278,-3.1645 -13.76085,-9.04398 -2.02675,-10.516993 7.31549,-19.301369 17.22253,-20.208548 14.53899,-1.331322 26.0992,11.496199 26.65626,25.401078 0.74248,18.53302 -15.68398,32.94555 -33.57963,33.10397 -22.51984,0.19936 -39.8161,-19.87429 -39.55168,-41.758181 0.32025,-26.504328 24.06584,-46.70051 49.93674,-45.999393 30.48795,0.826243 53.59358,28.258152 52.4471,58.115294 -1.32366,34.47124 -32.45096,60.49244 -66.29384,58.89481 -38.45444,-1.81533 -67.39536,-36.64413 -65.34253,-74.472395 2.30297,-42.437596 40.83757,-74.301218 82.65095,-71.790234 46.42077,2.787668 81.20929,45.031217 78.23794,90.829499 -0.0206,0.3182 -0.043,0.63629 -0.0671,0.95425" />
    <path
       sodipodi:type="spiral"
       style="fill:url(#linearGradient1205);fill-opacity:1;fill-rule:evenodd;stroke:#999999;stroke-width:0.264583"
       id="path963"
       sodipodi:cx="180.67262"
       sodipodi:cy="192.0119"
       sodipodi:expansion="1"
       sodipodi:revolution="3.00172"
       sodipodi:radius="142.25168"
       sodipodi:argument="-18.10503"
       sodipodi:t0="0"
       d="m 180.67262,192.0119 c 5.24214,4.83023 -3.92476,9.44936 -8.02815,8.71277 -11.11993,-1.99609 -13.46868,-16.03872 -9.39739,-24.76907 7.28258,-15.61654 27.74466,-18.24792 41.50999,-10.08201 20.20119,11.9838 23.16101,39.60656 10.76664,58.25091 -16.51975,24.84999 -51.52347,28.13066 -74.99184,11.45126 -29.53254,-20.98932 -33.12946,-63.46651 -12.13588,-91.73276 25.42604,-34.23422 75.42424,-38.14514 108.47369,-12.8205 38.94763,29.84421 43.17139,87.39112 13.50512,125.21461 -34.25089,43.66871 -99.36412,48.20472 -141.95553,14.18974 C 60.024203,231.77686 55.176278,159.08543 93.544905,111.7304 136.58871,58.605203 216.86675,53.445552 268.98228,96.171412 c 57.85811,47.433808 63.32938,135.304628 16.2436,192.178298 -0.32714,0.39515 -0.65643,0.78853 -0.98784,1.18011"
       transform="matrix(0.7269138,0,0,0.69165317,136.82583,80.519129)" />
    <path
       sodipodi:type="spiral"
       style="opacity:0.996785;fill:#666666;fill-opacity:1;fill-rule:evenodd;stroke:#808080;stroke-width:0.264583;stroke-miterlimit:4;stroke-dasharray:none;stroke-dashoffset:0"
       id="path963-5"
       sodipodi:cx="180.67262"
       sodipodi:cy="192.0119"
       sodipodi:expansion="1"
       sodipodi:revolution="3.00172"
       sodipodi:radius="142.25168"
       sodipodi:argument="-18.10503"
       sodipodi:t0="0"
       transform="matrix(0.7269138,0,0,0.69165317,92.312533,33.999239)"
       d="m 180.67262,192.0119 c 5.24214,4.83023 -3.92476,9.44936 -8.02815,8.71277 -11.11993,-1.99609 -13.46868,-16.03872 -9.39739,-24.76907 7.28258,-15.61654 27.74466,-18.24792 41.50999,-10.08201 20.20119,11.9838 23.16101,39.60656 10.76664,58.25091 -16.51975,24.84999 -51.52347,28.13066 -74.99184,11.45126 -29.53254,-20.98932 -33.12946,-63.46651 -12.13588,-91.73276 25.42604,-34.23422 75.42424,-38.14514 108.47369,-12.8205 38.94763,29.84421 43.17139,87.39112 13.50512,125.21461 -34.25089,43.66871 -99.36412,48.20472 -141.95553,14.18974 C 60.024203,231.77686 55.176278,159.08543 93.544905,111.7304 136.58871,58.605203 216.86675,53.445552 268.98228,96.171412 c 57.85811,47.433808 63.32938,135.304628 16.2436,192.178298 -0.32714,0.39515 -0.65643,0.78853 -0.98784,1.18011" />
    <rect
       style="opacity:0.906752;mix-blend-mode:normal;fill:#000000;fill-rule:evenodd;stroke-width:0.281316"
       id="rect22-1-9-3-3"
       width="317.21387"
       height="222.50392"
       x="-10.29286"
       y="-5.8023124" />
  </g>
</svg>
